<svg width="465" height="299" viewBox="0 0 465 299" fill="none" xmlns="http://www.w3.org/2000/svg">
<path d="M249.539 57C245.388 57.2302 241.302 58.9306 238.129 62.1025C231.29 68.9421 231.29 80.0307 238.129 86.8703C241.549 90.2899 246.031 92 250.514 92C254.996 92 259.479 90.2899 262.898 86.8703C266.069 83.6986 267.77 79.6125 268 75.4608L249.539 57ZM245.601 80.3377H242.133L245.809 74.2095L247.497 77.0207L245.601 80.3377ZM247.281 80.3377L253.106 70.1442L258.932 80.3377H247.281ZM264.268 73.7924C263.147 73.5985 262.049 73.2845 260.984 72.8529C258.994 72.0455 257.207 70.8593 255.674 69.3266C254.029 67.6823 252.788 65.7538 251.983 63.5945C251.634 62.6589 251.376 61.703 251.207 60.7315L264.268 73.7924ZM265.217 80.9466C264.415 82.7705 263.287 84.4164 261.866 85.8386C260.333 87.3713 258.546 88.5579 256.556 89.365C254.632 90.1452 252.6 90.5404 250.514 90.5404C248.428 90.5404 246.395 90.1452 244.472 89.365C242.481 88.5579 240.695 87.3713 239.162 85.8386C237.629 84.3053 236.442 82.5189 235.635 80.5284C234.855 78.6047 234.459 76.5721 234.459 74.4866C234.459 72.4005 234.854 70.368 235.635 68.4443C236.442 66.4538 237.629 64.6674 239.162 63.1341C240.584 61.712 242.23 60.5851 244.053 59.7846C245.621 59.0961 247.274 58.6673 248.981 58.5055L249.547 59.0716C249.743 62.2092 250.779 65.3046 252.656 67.9909L248.325 75.5681L245.809 71.3725L239.554 81.7974H244.767H252.064H261.446L255.23 70.9192C258.278 73.7005 262.07 75.2114 265.928 75.4522L266.495 76.0194C266.334 77.7252 265.904 79.3797 265.217 80.9466Z" fill="url(#paint0_linear)" style="mix-blend-mode:multiply"/>
<path d="M399.875 50L391.327 60.0085L390.548 60.9205L381.999 70.929L400.311 86.569L408.859 76.5606L409.638 75.6485L418.187 65.6401L399.875 50ZM400.183 84.9496L383.618 70.8016L391.421 61.6662L407.986 75.8143L400.183 84.9496ZM392.2 60.7542L400.002 51.6188L416.567 65.7669L408.765 74.9022L392.2 60.7541L392.2 60.7542Z" fill="white"/>
<path d="M402.021 60.0337L402.401 57.7604L396.967 59.5836L398.836 61.1798L401.453 63.4148L404.815 66.2858L406.295 58.4992L402.021 60.0337ZM399.254 60.0268L400.955 59.4533L400.783 60.4814L400.08 60.7316L399.254 60.0268ZM401.084 61.5897L404.794 60.2576L404.058 64.1296L401.084 61.5897Z" fill="white"/>
<path d="M403.637 66.7856L396.66 60.8263C396.421 60.6223 396.057 60.651 395.85 60.8924C395.647 61.1306 395.676 61.4954 395.914 61.6994L402.892 67.6587C403.133 67.8649 403.494 67.833 403.697 67.5947C403.904 67.3533 403.879 66.9918 403.637 66.7856Z" fill="white"/>
<path d="M388.094 70.8556C387.855 70.6516 387.493 70.6774 387.286 70.9188C387.08 71.1602 387.112 71.5218 387.351 71.7258C387.592 71.932 387.954 71.9065 388.16 71.6651C388.366 71.4236 388.335 71.0618 388.094 70.8556Z" fill="white"/>
<path d="M389.837 72.3445C389.599 72.141 389.237 72.1668 389.031 72.4082C388.824 72.6496 388.856 73.0112 389.094 73.2147C389.335 73.4209 389.697 73.3954 389.904 73.154C390.11 72.9125 390.079 72.5507 389.837 72.3445Z" fill="white"/>
<path d="M391.585 73.8362C391.343 73.63 390.981 73.6558 390.775 73.8972C390.569 74.1386 390.6 74.5002 390.841 74.7064C391.08 74.9099 391.442 74.8844 391.648 74.6429C391.854 74.4015 391.823 74.0397 391.585 73.8362Z" fill="white"/>
<path d="M393.327 75.3252C393.085 75.119 392.723 75.1448 392.517 75.3862C392.311 75.6276 392.342 75.9892 392.584 76.1954C392.821 76.3983 393.183 76.3729 393.389 76.1314C393.596 75.8899 393.564 75.5281 393.327 75.3252Z" fill="white"/>
<path d="M395.071 76.8148C394.83 76.6086 394.47 76.6366 394.264 76.878C394.058 77.1194 394.087 77.4788 394.328 77.685C394.569 77.8912 394.928 77.8624 395.134 77.621C395.34 77.3795 395.313 77.021 395.071 76.8148Z" fill="white"/>
<path d="M392.889 73.4412L396.251 76.3122L397.729 68.5286L393.454 70.0633L393.837 67.7869L388.404 69.61L390.272 71.2062L392.889 73.4412L392.889 73.4412ZM395.492 74.159L392.518 71.6191L396.227 70.2873L395.492 74.159ZM390.688 70.0561L392.388 69.483L392.219 70.5079L391.513 70.761L390.688 70.0562L390.688 70.0561Z" fill="white"/>
<path d="M412.573 68.4234C412.548 68.1084 412.271 67.8717 411.956 67.8964L409.097 68.1244L409.007 66.9804C408.982 66.6654 408.705 66.4286 408.39 66.4534C408.075 66.4782 407.841 66.7522 407.863 67.0704L407.998 68.7832C408.025 69.1003 408.3 69.3349 408.615 69.3101L412.046 69.0404C412.361 69.0156 412.598 68.7384 412.573 68.4234Z" fill="white"/>
<path d="M399.494 78.7378C399.522 79.055 399.794 79.2924 400.111 79.2647L400.114 79.2669L401.255 79.1747L401.345 80.3187C401.37 80.6337 401.647 80.8704 401.962 80.8457C402.277 80.8209 402.512 80.5465 402.489 80.2287L402.397 79.0876L403.541 78.9976C403.856 78.9728 404.093 78.6956 404.068 78.3809C404.043 78.0659 403.766 77.8291 403.451 77.8539L402.307 77.9436L402.219 76.8022L402.217 76.8C402.192 76.485 401.917 76.2504 401.6 76.273C401.285 76.2975 401.048 76.5747 401.073 76.8897L401.163 78.0337L400.021 78.1208C399.704 78.1485 399.47 78.4228 399.494 78.7378Z" fill="white"/>
<path d="M379.229 176.896L379.923 175.156L380.155 174.576L380.386 173.996C378.801 173.364 378.032 171.548 378.67 169.949C379.308 168.35 381.116 167.563 382.701 168.196L382.933 167.615L383.164 167.035L383.859 165.295L382.502 155.339L375.254 155.137L375.015 159.076L361.797 153.801L355.315 170.042L368.533 175.318L365.994 178.339L371.39 183.182L379.229 176.896ZM367.72 178.21L369.477 176.12L370.591 174.794L368.996 174.157L356.928 169.341L362.484 155.419L374.552 160.236L376.147 160.872L376.252 159.144L376.417 156.418L381.416 156.557L382.586 165.144L381.947 166.745C380.086 166.581 378.255 167.651 377.521 169.49C376.787 171.329 377.378 173.366 378.841 174.528L378.202 176.129L371.441 181.551L367.72 178.21Z" fill="url(#paint1_linear)" style="mix-blend-mode:multiply"/>
<path d="M369.597 165.26L371.785 164.896L368.465 160.497L367.584 162.707L366.349 165.8L364.761 169.778L372.302 168.688L369.597 165.26ZM368.797 163.005L369.551 164.004L368.716 164.143L368.468 163.829L368.797 163.005L368.797 163.005ZM367.935 165.165L369.986 167.764L366.708 168.238L367.935 165.165Z" fill="url(#paint2_linear)" style="mix-blend-mode:multiply"/>
<path d="M136 294.05L127.273 285L133.887 278.141C135.205 276.775 135.205 274.559 133.887 273.192C133.227 272.508 132.364 272.166 131.5 272.166C130.637 272.166 129.772 272.508 129.113 273.192L122.5 280.05L113.773 271L109 275.95L117.727 285L110.125 292.884V297.834H114.898L122.5 289.95L131.227 299L136 294.05ZM126.477 284.175L125.288 282.941L130.31 277.733L131.5 278.966L126.477 284.175ZM129.909 274.016C130.334 273.576 130.899 273.333 131.5 273.333C132.101 273.333 132.666 273.576 133.091 274.016C133.968 274.926 133.968 276.407 133.091 277.316L132.295 278.141L129.113 274.841L129.909 274.016ZM128.318 275.666L129.515 276.908L124.492 282.116L123.295 280.875L128.318 275.666ZM113.773 272.65L115.341 274.275L114.545 275.1C114.325 275.328 114.325 275.698 114.545 275.925C114.765 276.153 115.121 276.153 115.341 275.925C115.341 275.925 115.341 275.925 115.341 275.924L116.136 275.1L117.727 276.75L116.932 277.575C116.712 277.803 116.712 278.173 116.932 278.4C117.151 278.628 117.508 278.628 117.727 278.4C117.727 278.4 117.727 278.4 117.727 278.4L118.523 277.575L120.114 279.225L119.319 280.05C119.319 280.05 119.318 280.05 119.318 280.05C119.099 280.278 119.099 280.647 119.318 280.875C119.538 281.103 119.894 281.103 120.114 280.875V280.875L120.909 280.05L122.5 281.7L121.705 282.525C121.485 282.753 121.485 283.122 121.705 283.35C121.924 283.578 122.28 283.578 122.5 283.35L123.295 282.525L124.886 284.175L124.091 285C123.871 285.228 123.871 285.597 124.091 285.825C124.31 286.053 124.667 286.053 124.886 285.825C124.887 285.825 124.887 285.825 124.887 285.825L125.682 285L127.273 286.65L126.477 287.475V287.475C126.258 287.703 126.258 288.072 126.477 288.3C126.697 288.528 127.053 288.528 127.273 288.3L128.068 287.475L129.66 289.125L128.864 289.95C128.644 290.178 128.644 290.547 128.864 290.775C129.084 291.002 129.44 291.003 129.66 290.775C129.66 290.775 129.66 290.775 129.66 290.774L130.455 289.95L132.046 291.6L131.251 292.424L131.251 292.425C131.031 292.652 131.031 293.022 131.251 293.25C131.471 293.477 131.827 293.477 132.046 293.25L132.842 292.425L134.409 294.05L131.227 297.35L110.591 275.95L113.773 272.65ZM111.249 296.667V295.7L112.182 296.667H111.249ZM114.432 296.667H113.772L111.249 294.05V293.367L118.523 285.825L119.719 287.066L114.106 292.887C113.886 293.115 113.886 293.485 114.106 293.712C114.325 293.94 114.681 293.94 114.901 293.712L120.515 287.891L121.705 289.125L114.432 296.667Z" fill="white"/>
<path d="M332 35.0503L323.273 26L329.887 19.1414C331.205 17.7747 331.205 15.5585 329.887 14.1918C329.227 13.5082 328.364 13.1664 327.5 13.1664C326.637 13.1664 325.772 13.5082 325.113 14.1918L318.5 21.0503L309.773 12L305 16.9497L313.727 26L306.125 33.8835V38.8336H310.898L318.5 30.9497L327.227 40L332 35.0503ZM322.477 25.175L321.288 23.9411L326.31 18.7326L327.5 19.9664L322.477 25.175ZM325.909 15.0163C326.334 14.5758 326.899 14.3332 327.5 14.3332C328.101 14.3332 328.666 14.5759 329.091 15.0163C329.968 15.9264 329.968 17.4068 329.091 18.3164L328.295 19.1414L325.113 15.8414L325.909 15.0163ZM324.318 16.6664L325.515 17.9075L320.492 23.1161L319.295 21.8753L324.318 16.6664ZM309.773 13.65L311.341 15.2753L310.545 16.1003C310.325 16.328 310.325 16.6976 310.545 16.9253C310.765 17.153 311.121 17.153 311.341 16.9253C311.341 16.9253 311.341 16.9249 311.341 16.9244L312.136 16.1003L313.727 17.7503L312.932 18.5754C312.712 18.8031 312.712 19.1726 312.932 19.4004C313.151 19.6281 313.508 19.6281 313.727 19.4004C313.727 19.3999 313.727 19.3999 313.727 19.3999L314.523 18.5754L316.114 20.2254L315.319 21.0495C315.319 21.0495 315.318 21.05 315.318 21.0504C315.099 21.2781 315.099 21.6473 315.318 21.875C315.538 22.1031 315.894 22.1031 316.114 21.875V21.8754L316.909 21.0504L318.5 22.6999L317.705 23.525C317.485 23.7531 317.485 24.1223 317.705 24.35C317.924 24.5777 318.28 24.5777 318.5 24.35L319.295 23.525L320.886 25.175L320.091 26C319.871 26.2277 319.871 26.5973 320.091 26.825C320.31 27.0527 320.667 27.0527 320.886 26.825C320.887 26.8246 320.887 26.8246 320.887 26.8246L321.682 26L323.273 27.65L322.477 28.4746V28.475C322.258 28.7028 322.258 29.0719 322.477 29.3001C322.697 29.5278 323.053 29.5278 323.273 29.3001L324.068 28.475L325.66 30.1251L324.864 30.9497C324.644 31.1778 324.644 31.547 324.864 31.7747C325.084 32.0024 325.44 32.0028 325.66 31.7747C325.66 31.7747 325.66 31.7747 325.66 31.7742L326.455 30.9497L328.046 32.5997L327.251 33.4243L327.251 33.4247C327.031 33.6524 327.031 34.022 327.251 34.2497C327.471 34.4774 327.827 34.4774 328.046 34.2497L328.842 33.4247L330.409 35.0504L327.227 38.35L306.591 16.9497L309.773 13.65ZM307.249 37.6668V36.7004L308.182 37.6668H307.249ZM310.432 37.6668H309.772L307.249 35.0503V34.3672L314.523 26.825L315.719 28.0661L310.106 33.8874C309.886 34.1151 309.886 34.4847 310.106 34.7124C310.325 34.9401 310.681 34.9401 310.901 34.7124L316.515 28.8912L317.705 30.1247L310.432 37.6668Z" fill="url(#paint3_linear)" style="mix-blend-mode:multiply"/>
<path d="M326.828 220.588L321.811 225.448C321.58 225.671 321.574 226.04 321.797 226.27C322.021 226.502 322.39 226.508 322.621 226.284L327.638 221.425C327.869 221.201 327.875 220.833 327.651 220.601C327.428 220.371 327.059 220.364 326.828 220.588Z" fill="url(#paint4_linear)" style="mix-blend-mode:multiply"/>
<path d="M321 224.611L322.672 222.991C322.903 222.767 322.909 222.399 322.686 222.168C322.462 221.937 322.094 221.932 321.863 222.156L320.19 223.775C319.96 223.999 319.953 224.367 320.177 224.598C320.401 224.829 320.769 224.834 321 224.611Z" fill="url(#paint5_linear)" style="mix-blend-mode:multiply"/>
<path d="M333.075 212.47L331.064 211.933L332.238 216.97L333.831 215.427L336.06 213.268L338.928 210.491L332.059 208.499L333.075 212.47ZM332.904 214.704L332.638 213.558L333.405 213.763L333.498 214.128L332.904 214.704ZM334.461 213.196L333.692 210.185L336.677 211.05L334.461 213.196Z" fill="url(#paint6_linear)" style="mix-blend-mode:multiply"/>
<path d="M329.652 198.404L310.418 217.032C310.187 217.256 310.181 217.625 310.405 217.856L321.744 229.563C321.967 229.794 322.336 229.799 322.567 229.576L341.8 210.948C342.031 210.725 342.037 210.356 341.814 210.126L330.474 198.418C330.251 198.187 329.882 198.181 329.652 198.404ZM329.223 200.441L325.725 213.302C325.698 213.404 325.536 213.56 325.433 213.585L312.464 216.672L329.223 200.441ZM322.175 228.334L312.118 217.951L325.703 214.717C325.96 214.656 326.212 214.506 326.417 214.308C326.621 214.11 326.78 213.863 326.849 213.608L330.513 200.131L340.572 210.516L322.175 228.334Z" fill="url(#paint7_linear)" style="mix-blend-mode:multiply"/>
<path d="M287 12.7272C287 5.69796 281.329 0 274.333 0C272.026 0 269.864 0.619865 268 1.70299C266.136 0.61994 263.974 0 261.667 0C254.671 0 249 5.69796 249 12.7272C249 17.4761 251.588 21.6167 255.425 23.8039C256.177 30.1107 261.52 35 268 35C274.48 35 279.823 30.1107 280.575 23.8039C284.412 21.6167 287 17.4761 287 12.7272ZM257.164 24.626C258.564 25.1608 260.081 25.4544 261.667 25.4544C263.974 25.4544 266.136 24.8346 268 23.7514C269.864 24.8345 272.026 25.4544 274.333 25.4544C275.919 25.4544 277.436 25.1608 278.836 24.626C278.691 25.3024 278.483 25.9642 278.213 26.6068C277.655 27.9329 276.855 29.1243 275.837 30.1474C274.819 31.1705 273.634 31.9739 272.314 32.535C270.948 33.1153 269.497 33.4095 268 33.4095C266.503 33.4095 265.052 33.1153 263.686 32.535C262.366 31.974 261.181 31.1705 260.163 30.1474C259.145 29.1243 258.345 27.9329 257.787 26.6068C257.517 25.9642 257.309 25.3024 257.164 24.626ZM279.071 22.7977C278.931 22.8642 278.79 22.9282 278.647 22.9894C277.282 23.5696 275.83 23.8639 274.333 23.8639C272.836 23.8639 271.385 23.5697 270.02 22.9894C269.838 22.9119 269.66 22.8297 269.482 22.7435C272.338 20.4899 274.207 17.0298 274.326 13.1269C274.863 13.5026 275.369 13.9268 275.837 14.3981C276.855 15.4212 277.655 16.6126 278.213 17.9381C278.791 19.3102 279.083 20.7685 279.083 22.2728C279.083 22.4487 279.079 22.6235 279.071 22.7977ZM272.737 12.2023C272.745 12.3765 272.75 12.5513 272.75 12.7272C272.75 14.2315 272.458 15.6898 271.88 17.0613C271.321 18.3873 270.522 19.5788 269.504 20.6019C269.037 21.0715 268.535 21.4938 268 21.8679C267.465 21.4938 266.963 21.0715 266.496 20.6019C265.478 19.5788 264.679 18.3874 264.12 17.0613C263.542 15.6898 263.25 14.2315 263.25 12.7272C263.25 12.5513 263.255 12.3765 263.263 12.2023C263.402 12.1358 263.543 12.0718 263.686 12.0106C265.052 11.4304 266.503 11.1361 268 11.1361C269.497 11.1361 270.948 11.4303 272.314 12.0106C272.457 12.0718 272.598 12.1358 272.737 12.2023ZM268 9.54556C266.415 9.54556 264.897 9.83924 263.498 10.374C263.643 9.69762 263.85 9.03577 264.12 8.39316C264.679 7.06715 265.478 5.87567 266.496 4.85258C266.963 4.38298 267.465 3.96059 268 3.58652C268.535 3.96059 269.037 4.38298 269.504 4.85258C270.522 5.87567 271.321 7.06707 271.88 8.39316C272.151 9.03577 272.358 9.69762 272.502 10.374C271.103 9.83916 269.585 9.54556 268 9.54556ZM261.674 13.1269C261.793 17.0298 263.662 20.4899 266.518 22.7435C266.341 22.8297 266.162 22.9119 265.98 22.9894C264.615 23.5696 263.164 23.8639 261.667 23.8639C260.17 23.8639 258.718 23.5697 257.353 22.9894C257.211 22.9282 257.069 22.8641 256.929 22.7977C256.921 22.6235 256.917 22.4487 256.917 22.2728C256.917 20.7685 257.209 19.3102 257.787 17.9387C258.345 16.6127 259.145 15.4212 260.163 14.3981C260.631 13.9268 261.137 13.5026 261.674 13.1269ZM266.518 2.71094C263.94 4.74429 262.168 7.75987 261.759 11.1961C258.03 13.3215 255.481 17.2926 255.34 21.8731C254.803 21.4974 254.299 21.0732 253.83 20.6019C252.811 19.5788 252.012 18.3874 251.454 17.0613C250.876 15.6898 250.583 14.2315 250.583 12.7272C250.583 11.2229 250.876 9.76459 251.454 8.39316C252.012 7.06715 252.811 5.87567 253.83 4.85258C254.848 3.82949 256.033 3.02609 257.353 2.46499C258.718 1.88473 260.17 1.59045 261.667 1.59045C263.164 1.59045 264.615 1.88465 265.98 2.46499C266.162 2.54255 266.341 2.62466 266.518 2.71094ZM284.546 8.39316C285.124 9.76466 285.417 11.2229 285.417 12.7272C285.417 14.2315 285.124 15.6898 284.546 17.0613C283.988 18.3873 283.189 19.5788 282.17 20.6019C281.702 21.0732 281.197 21.4974 280.66 21.8731C280.519 17.2926 277.97 13.3215 274.241 11.1961C273.832 7.75987 272.06 4.74422 269.482 2.71094C269.66 2.62473 269.838 2.54255 270.02 2.46507C271.385 1.8848 272.836 1.59053 274.333 1.59053C275.83 1.59053 277.282 1.88473 278.647 2.46507C279.967 3.02609 281.152 3.82956 282.17 4.85265C283.189 5.87567 283.988 7.06715 284.546 8.39316Z" fill="url(#paint8_linear)" style="mix-blend-mode:multiply"/>
<path d="M177.049 40.9068L184.394 45.9599L187.542 48.1256L194.888 53.1792L213.263 28.7157L193.326 14.9999L177.049 40.9068ZM178.777 40.5494L180.134 38.3911L186.56 42.8118L185.116 44.9104L178.777 40.5494ZM186.166 45.6326L189.053 41.4354L190.103 42.1571L187.215 46.3544L186.166 45.6326ZM188.264 47.0761L189.708 44.9775L196.135 49.3987L194.604 51.437L188.264 47.0761ZM211.447 29.0132L196.901 48.3793L190.43 43.928L191.874 41.8294C192.073 41.5396 192 41.1435 191.71 40.9442C191.421 40.7449 191.024 40.8179 190.825 41.1077C191.024 40.8179 190.95 40.4213 190.66 40.222C190.371 40.0226 189.975 40.0962 189.775 40.3859C189.975 40.0962 189.901 39.6996 189.611 39.5003C189.322 39.3009 188.925 39.3739 188.726 39.6637L187.282 41.7623L180.812 37.3114L193.697 16.8022L211.447 29.0132Z" fill="white"/>
<path d="M192.295 34.9042L197.85 32.2275L197.655 35.3521L204.736 32.1245L201.987 30.2338L198.14 27.5869L193.192 24.1835L192.295 34.9042ZM202.159 31.8991L199.059 33.3123L199.165 31.5933L200.665 30.8713L202.159 31.8991L202.159 31.8991ZM199.456 30.0396L193.75 32.789L194.278 26.4775L199.456 30.0396Z" fill="white"/>
<g clip-path="url(#clip0)">
<path d="M438.285 151.636C438.285 149.387 436.462 147.563 434.212 147.563C433.911 147.563 433.618 147.596 433.335 147.658L430.636 144.959L437.961 137.633C439.23 136.364 439.23 134.307 437.961 133.038C437.327 132.404 436.496 132.086 435.664 132.086C434.833 132.086 434.001 132.404 433.366 133.038L426.04 140.364L417.697 132.02C417.274 131.597 416.719 131.386 416.166 131.386C415.611 131.386 415.056 131.597 414.633 132.02C413.788 132.866 413.788 134.237 414.633 135.084L422.977 143.427L415.085 151.319V155.914H419.681L427.572 148.022L430.248 150.698C430.177 150.999 430.138 151.313 430.138 151.636C430.138 156.249 436.941 156.614 439.19 156.614C441.44 156.615 438.285 153.886 438.285 151.636ZM435.664 133.169C436.243 133.169 436.786 133.395 437.195 133.804C438.04 134.648 438.04 136.023 437.195 136.867L436.43 137.633L433.366 134.569L434.132 133.804C434.541 133.395 435.085 133.169 435.664 133.169ZM415.399 134.317C414.977 133.895 414.977 133.208 415.399 132.786C415.604 132.581 415.876 132.469 416.166 132.469C416.454 132.469 416.727 132.581 416.931 132.786L425.275 141.129L423.743 142.661L415.399 134.317ZM416.169 154.831V153.934L417.065 154.831H416.169ZM419.232 154.831H418.598L416.169 152.402V151.768L432.601 135.335L433.753 136.488L418.918 151.322C418.706 151.534 418.706 151.877 418.918 152.088C419.129 152.3 419.473 152.3 419.684 152.088L434.518 137.253L435.664 138.399L419.232 154.831ZM428.338 147.256L429.869 145.725L432.225 148.08C431.584 148.439 431.05 148.966 430.683 149.601L428.338 147.256ZM434.167 154.829C433.225 154.511 432.499 154.098 432.009 153.6C431.479 153.063 431.222 152.421 431.222 151.636C431.222 150.838 431.533 150.087 432.097 149.522C432.662 148.958 433.413 148.647 434.212 148.647C435.861 148.647 437.202 149.988 437.202 151.636C437.202 152.869 437.859 154.072 438.387 155.038C438.466 155.182 438.561 155.356 438.648 155.524C437.482 155.494 435.716 155.351 434.167 154.829Z" fill="url(#paint9_linear)" style="mix-blend-mode:multiply"/>
</g>
<g clip-path="url(#clip1)">
<path d="M348.686 113.447L396.58 127.017L399.495 116.733L351.6 103.162L348.686 113.447ZM395.352 124.819L391.974 123.861L392.461 122.147C392.594 121.673 392.319 121.181 391.846 121.046C391.373 120.913 390.881 121.188 390.746 121.661C390.746 121.662 390.746 121.662 390.746 121.662L390.261 123.375L386.832 122.404L387.318 120.69C387.452 120.216 387.177 119.724 386.703 119.59C386.231 119.456 385.737 119.73 385.604 120.204L385.118 121.919L381.69 120.947L382.175 119.233L382.175 119.232C382.31 118.76 382.034 118.267 381.561 118.133C381.087 117.999 380.595 118.274 380.461 118.747C380.461 118.748 380.461 118.748 380.461 118.748L379.975 120.461L376.547 119.489L377.033 117.776C377.167 117.302 376.892 116.81 376.418 116.675C375.946 116.542 375.453 116.817 375.318 117.29L374.833 119.004L371.405 118.033L371.891 116.319C372.025 115.845 371.749 115.353 371.276 115.219C370.803 115.084 370.31 115.359 370.176 115.833L369.691 117.548L366.263 116.576L366.748 114.861C366.883 114.389 366.607 113.895 366.134 113.762C365.66 113.628 365.168 113.902 365.034 114.376C365.034 114.376 365.034 114.376 365.034 114.376L364.548 116.09L361.12 115.118L361.606 113.405C361.739 112.931 361.465 112.439 360.991 112.304C360.518 112.171 360.026 112.446 359.891 112.918C359.891 112.918 359.891 112.918 359.892 112.92L359.406 114.633L355.977 113.662L356.462 111.949C356.463 111.948 356.463 111.948 356.463 111.948C356.597 111.474 356.322 110.982 355.849 110.848C355.375 110.713 354.882 110.988 354.749 111.462L354.263 113.175L350.886 112.219L352.828 105.362L397.295 117.962L395.352 124.819Z" fill="url(#paint10_linear)" style="mix-blend-mode:multiply"/>
</g>
<path d="M387.243 28.7833L373.196 11.378C373.027 11.1696 372.721 11.1366 372.512 11.3053L360.405 21.0771C360.196 21.2457 360.163 21.5519 360.332 21.7603L365.4 28.0398L362.764 29.4192L362.642 29.2679C362.474 29.0595 362.167 29.0268 361.958 29.1954C361.749 29.3641 361.717 29.6703 361.885 29.8787L366.771 35.9332C366.94 36.1416 367.246 36.1746 367.455 36.0059C367.664 35.8373 367.697 35.5308 367.528 35.3224L367.406 35.1706L369.31 32.885L374.379 39.1656C374.547 39.374 374.853 39.407 375.062 39.2383L387.17 29.4666C387.379 29.2979 387.411 28.9917 387.243 28.7833ZM363.387 30.1913L366.019 28.8138L368.685 32.1153L366.783 34.3991L363.387 30.1913L363.387 30.1913ZM386.18 29.015L376.343 36.9543L362.908 20.3072L372.745 12.3679L386.18 29.015ZM368.112 29.8524L361.394 21.5289L362.151 20.9181L368.869 29.2416L375.586 37.5651L374.83 38.1759L368.112 29.8524Z" fill="url(#paint11_linear)" style="mix-blend-mode:multiply"/>
<path d="M368.795 29.9251C369.004 29.7564 369.037 29.4507 368.869 29.2418C368.7 29.0329 368.394 29.0004 368.185 29.1691C367.976 29.3377 367.943 29.6437 368.112 29.8526C368.28 30.0615 368.586 30.0937 368.795 29.9251Z" fill="url(#paint12_linear)" style="mix-blend-mode:multiply"/>
<path d="M372.149 14.7241L381.309 26.0738C381.309 26.0738 381.309 26.0744 381.31 26.0749C381.478 26.2833 381.784 26.3163 381.993 26.1476C382.202 25.979 382.235 25.6725 382.067 25.4641L372.906 14.1133C372.737 13.9038 372.43 13.8711 372.221 14.0397C372.012 14.2084 371.98 14.5146 372.149 14.7241Z" fill="url(#paint13_linear)" style="mix-blend-mode:multiply"/>
<path d="M370.635 15.946L375.52 21.9989C375.521 21.9994 375.521 21.9994 375.521 21.9994C375.69 22.2084 375.995 22.2408 376.204 22.0721C376.413 21.9035 376.446 21.5978 376.277 21.3889L371.392 15.3354C371.223 15.126 370.917 15.093 370.708 15.2616C370.499 15.4303 370.466 15.7365 370.635 15.946Z" fill="url(#paint14_linear)" style="mix-blend-mode:multiply"/>
<path d="M369.119 17.1677L375.837 25.4907C375.837 25.4913 375.837 25.4913 375.837 25.4913C376.006 25.7002 376.312 25.7326 376.521 25.564C376.73 25.3953 376.763 25.0894 376.594 24.8804L369.876 16.5569C369.707 16.3474 369.401 16.3144 369.192 16.4831C368.983 16.6519 368.95 16.9582 369.119 17.1677Z" fill="url(#paint15_linear)" style="mix-blend-mode:multiply"/>
<path d="M367.608 18.3888L371.882 23.6851C372.051 23.8946 372.358 23.9275 372.566 23.7589C372.775 23.5903 372.808 23.284 372.639 23.0745L368.365 17.778C368.195 17.5685 367.889 17.5357 367.68 17.7044C367.471 17.873 367.439 18.1793 367.608 18.3888Z" fill="url(#paint16_linear)" style="mix-blend-mode:multiply"/>
<path d="M366.094 19.6104L374.033 29.447L374.033 29.4472C374.202 29.6567 374.509 29.6894 374.717 29.5208C374.926 29.3521 374.959 29.0459 374.79 28.8364L366.851 18.9998C366.682 18.7903 366.376 18.7573 366.167 18.926C365.958 19.0946 365.925 19.4009 366.094 19.6104Z" fill="url(#paint17_linear)" style="mix-blend-mode:multiply"/>
<path d="M364.58 20.832L367.023 23.8582C367.192 24.0676 367.498 24.1006 367.707 23.932C367.916 23.7633 367.949 23.4568 367.78 23.2473L365.337 20.2212C365.168 20.0117 364.862 19.9787 364.653 20.1474C364.444 20.3162 364.411 20.6225 364.58 20.832Z" fill="url(#paint18_linear)" style="mix-blend-mode:multiply"/>
<path d="M297.714 153.114L293.914 149.114L289.589 162.123L295.325 160.843L303.358 159.052L313.683 156.749L300.921 142.733L297.714 153.114ZM292.449 159.54L294.718 152.716L297.072 155.194L295.972 158.754L292.449 159.54ZM298.106 158.278L301.754 146.469L310.077 155.608L298.106 158.278Z" fill="white"/>
<path d="M307.288 128.08L306.866 126.186C306.75 125.664 306.241 125.333 305.729 125.447C305.216 125.561 304.897 126.077 305.013 126.6L305.435 128.493L301.728 129.32L301.306 127.427C301.189 126.904 300.681 126.573 300.169 126.687C299.656 126.801 299.336 127.317 299.453 127.84L299.875 129.733L296.168 130.56L295.746 128.667C295.629 128.144 295.12 127.813 294.609 127.927C294.096 128.041 293.776 128.557 293.892 129.08L294.315 130.973L290.608 131.8L290.186 129.907C290.069 129.384 289.56 129.053 289.048 129.167C288.536 129.282 288.215 129.798 288.332 130.32L288.754 132.213L285.047 133.04L284.625 131.147C284.509 130.624 283.999 130.293 283.488 130.407C282.975 130.522 282.655 131.038 282.771 131.561L283.194 133.454L277.633 134.694L286.922 176.339L322.137 168.484L312.849 126.839L307.288 128.08ZM319.871 167.043L288.362 174.071L279.9 136.134L283.607 135.307L284.012 137.121C284.128 137.644 284.638 137.975 285.15 137.861C285.662 137.747 285.982 137.23 285.865 136.708L285.461 134.894L289.168 134.067L289.572 135.881C289.689 136.403 290.198 136.735 290.71 136.621C291.222 136.507 291.542 135.99 291.426 135.467L291.021 133.654L294.728 132.827L295.133 134.641C295.249 135.163 295.758 135.495 296.271 135.381C296.783 135.266 297.103 134.75 296.986 134.227L296.582 132.413L300.288 131.587L300.693 133.4C300.81 133.923 301.318 134.255 301.831 134.14C302.343 134.026 302.663 133.51 302.546 132.987L302.141 131.173L305.849 130.347L306.253 132.16C306.37 132.683 306.879 133.015 307.392 132.9C307.904 132.786 308.223 132.27 308.106 131.747L307.702 129.933L311.409 129.106L319.871 167.043Z" fill="white"/>
<path d="M318.231 54.4347L295.495 74.4399C295.222 74.6801 295.195 75.0962 295.435 75.3691L309.351 91.186C309.592 91.459 310.008 91.4852 310.281 91.2451L318.484 84.0273L320.502 87.5134L320.304 87.6874C320.031 87.9275 320.005 88.344 320.245 88.617C320.485 88.89 320.901 88.9162 321.174 88.676L329.083 81.7175C329.356 81.4773 329.382 81.0619 329.142 80.7889C328.902 80.5159 328.486 80.4887 328.213 80.7288L328.015 80.9028L324.813 78.4589L333.018 71.2399C333.29 70.9997 333.317 70.5842 333.077 70.3113L319.16 54.4944C318.92 54.2214 318.504 54.1945 318.231 54.4347ZM321.51 86.6266L319.495 83.1451L323.808 79.3479L327.007 81.7896L321.51 86.6267L321.51 86.6266ZM322.956 60.801L319.99 63.4104L315.641 58.4678L318.607 55.8584L322.956 60.801ZM320.86 64.3991L323.825 61.7897L329.914 68.7093L326.948 71.3186L320.86 64.3991ZM314.653 59.3374L325.96 72.1882L308.166 87.8443L296.859 74.9935L314.653 59.3374ZM320.779 80.2545L309.906 89.8217L309.036 88.833L319.909 79.2658L330.784 69.698L331.653 70.6866L320.779 80.2545Z" fill="url(#paint19_linear)" style="mix-blend-mode:multiply"/>
<path d="M320.837 79.3251C320.597 79.0522 320.182 79.0253 319.908 79.2661C319.635 79.5063 319.609 79.9217 319.849 80.1947C320.089 80.4677 320.505 80.4949 320.778 80.2548C321.051 80.014 321.077 79.5981 320.837 79.3251Z" fill="url(#paint20_linear)" style="mix-blend-mode:multiply"/>
<path d="M314.14 75.5555L317.529 72.5734L309.877 69.9518L310.81 74.4933L308.567 73.7777L309.62 79.5319L311.504 77.8749L314.14 75.5555ZM311.631 71.9444L314.955 73.0838L312.337 75.3873L311.631 71.9444ZM310.497 77.0067L310.257 75.6992L311.113 75.9722L311.198 76.3894L310.497 77.0067Z" fill="url(#paint21_linear)" style="mix-blend-mode:multiply"/>
<path d="M302.552 73.4909L301.563 74.3605L302.433 75.3492L303.422 74.4796L302.552 73.4909Z" fill="url(#paint22_linear)" style="mix-blend-mode:multiply"/>
<path d="M307.987 68.7078L306.999 69.5774L307.869 70.5661L308.857 69.6965L307.987 68.7078Z" fill="url(#paint23_linear)" style="mix-blend-mode:multiply"/>
<path d="M313.425 63.924L312.436 64.7943L313.305 65.7829L314.294 64.9127L313.425 63.924Z" fill="url(#paint24_linear)" style="mix-blend-mode:multiply"/>
<path d="M316.904 67.8781L315.915 68.7483L316.785 69.7366L317.774 68.8664L316.904 67.8781Z" fill="url(#paint25_linear)" style="mix-blend-mode:multiply"/>
<path d="M320.385 71.8321L319.396 72.7023L320.265 73.691L321.254 72.8208L320.385 71.8321Z" fill="url(#paint26_linear)" style="mix-blend-mode:multiply"/>
<path d="M309.511 81.3995L308.522 82.2691L309.392 83.2578L310.381 82.3882L309.511 81.3995Z" fill="url(#paint27_linear)" style="mix-blend-mode:multiply"/>
<path d="M306.031 77.4455L305.043 78.315L305.913 79.3033L306.901 78.4338L306.031 77.4455Z" fill="url(#paint28_linear)" style="mix-blend-mode:multiply"/>
<path d="M314.947 76.6164L313.959 77.486L314.829 78.4746L315.817 77.6051L314.947 76.6164Z" fill="url(#paint29_linear)" style="mix-blend-mode:multiply"/>
<circle cx="445.5" cy="94.5" r="10.5" stroke="url(#paint30_linear)" stroke-width="10" style="mix-blend-mode:multiply"/>
<path d="M364 259.807V255.894H358.053V249H353.947V255.894H348V259.807H353.947V267H358.053V259.807H364Z" fill="white"/>
<path d="M404.472 292C404.472 290.494 400.366 277.65 416.38 282.17C432.394 286.689 437.321 279.157 440.606 264.641C443.891 250.125 453.472 248.756 461 249.029" stroke="url(#paint31_linear)" stroke-width="8" stroke-linecap="round" stroke-linejoin="round" style="mix-blend-mode:multiply"/>
<path d="M448.197 44.7795C447.668 45.0496 443.888 48.7878 442.618 42.3746C441.348 35.9614 437.822 35.5872 432.135 37.0392C426.448 38.4913 424.257 35.3843 423.01 32.7012" stroke="url(#paint32_linear)" stroke-width="8" stroke-linecap="round" stroke-linejoin="round" style="mix-blend-mode:multiply"/>
<circle cx="13" cy="180" r="8" stroke="white" stroke-width="10"/>
<defs>
<linearGradient id="paint0_linear" x1="267.545" y1="57.8464" x2="228.251" y2="69.428" gradientUnits="userSpaceOnUse">
<stop stop-color="#FFC000"/>
<stop offset="1" stop-color="#FF8A00"/>
</linearGradient>
<linearGradient id="paint1_linear" x1="375.576" y1="184.433" x2="376.845" y2="150.006" gradientUnits="userSpaceOnUse">
<stop stop-color="#FFC000"/>
<stop offset="1" stop-color="#FF8A00"/>
</linearGradient>
<linearGradient id="paint2_linear" x1="370.791" y1="172.045" x2="370.345" y2="160.919" gradientUnits="userSpaceOnUse">
<stop stop-color="#FFC000"/>
<stop offset="1" stop-color="#FF8A00"/>
</linearGradient>
<linearGradient id="paint3_linear" x1="331.649" y1="12.6771" x2="301.165" y2="21.341" gradientUnits="userSpaceOnUse">
<stop stop-color="#FFC000"/>
<stop offset="1" stop-color="#FF8A00"/>
</linearGradient>
<linearGradient id="paint4_linear" x1="327.19" y1="220.277" x2="328.546" y2="224.398" gradientUnits="userSpaceOnUse">
<stop stop-color="#FFC000"/>
<stop offset="1" stop-color="#FF8A00"/>
</linearGradient>
<linearGradient id="paint5_linear" x1="322.268" y1="221.802" x2="322.023" y2="224.984" gradientUnits="userSpaceOnUse">
<stop stop-color="#FFC000"/>
<stop offset="1" stop-color="#FF8A00"/>
</linearGradient>
<linearGradient id="paint6_linear" x1="334.626" y1="206.223" x2="330.721" y2="215.855" gradientUnits="userSpaceOnUse">
<stop stop-color="#FFC000"/>
<stop offset="1" stop-color="#FF8A00"/>
</linearGradient>
<linearGradient id="paint7_linear" x1="330.102" y1="198.556" x2="319.219" y2="227.407" gradientUnits="userSpaceOnUse">
<stop stop-color="#FFC000"/>
<stop offset="1" stop-color="#FF8A00"/>
</linearGradient>
<linearGradient id="paint8_linear" x1="286.506" y1="0.846431" x2="244.445" y2="14.3062" gradientUnits="userSpaceOnUse">
<stop stop-color="#FFC000"/>
<stop offset="1" stop-color="#FF8A00"/>
</linearGradient>
<linearGradient id="paint9_linear" x1="439.661" y1="131.996" x2="410.615" y2="140.819" gradientUnits="userSpaceOnUse">
<stop stop-color="#FFC000"/>
<stop offset="1" stop-color="#FF8A00"/>
</linearGradient>
<linearGradient id="paint10_linear" x1="346.174" y1="106.828" x2="381.932" y2="141.842" gradientUnits="userSpaceOnUse">
<stop stop-color="#FFC000"/>
<stop offset="1" stop-color="#FF8A00"/>
</linearGradient>
<linearGradient id="paint11_linear" x1="386.973" y1="29.2353" x2="364.206" y2="14.7436" gradientUnits="userSpaceOnUse">
<stop stop-color="#FFC000"/>
<stop offset="1" stop-color="#FF8A00"/>
</linearGradient>
<linearGradient id="paint12_linear" x1="369.147" y1="29.6247" x2="368.212" y2="28.9775" gradientUnits="userSpaceOnUse">
<stop stop-color="#FFC000"/>
<stop offset="1" stop-color="#FF8A00"/>
</linearGradient>
<linearGradient id="paint13_linear" x1="382.226" y1="25.6995" x2="378.715" y2="27.4835" gradientUnits="userSpaceOnUse">
<stop stop-color="#FFC000"/>
<stop offset="1" stop-color="#FF8A00"/>
</linearGradient>
<linearGradient id="paint14_linear" x1="376.493" y1="21.6931" x2="372.916" y2="22.8729" gradientUnits="userSpaceOnUse">
<stop stop-color="#FFC000"/>
<stop offset="1" stop-color="#FF8A00"/>
</linearGradient>
<linearGradient id="paint15_linear" x1="376.786" y1="25.1552" x2="373.222" y2="26.6763" gradientUnits="userSpaceOnUse">
<stop stop-color="#FFC000"/>
<stop offset="1" stop-color="#FF8A00"/>
</linearGradient>
<linearGradient id="paint16_linear" x1="372.863" y1="23.3894" x2="369.299" y2="24.4065" gradientUnits="userSpaceOnUse">
<stop stop-color="#FFC000"/>
<stop offset="1" stop-color="#FF8A00"/>
</linearGradient>
<linearGradient id="paint17_linear" x1="374.966" y1="29.0925" x2="371.428" y2="30.7637" gradientUnits="userSpaceOnUse">
<stop stop-color="#FFC000"/>
<stop offset="1" stop-color="#FF8A00"/>
</linearGradient>
<linearGradient id="paint18_linear" x1="368.028" y1="23.592" x2="364.707" y2="23.8679" gradientUnits="userSpaceOnUse">
<stop stop-color="#FFC000"/>
<stop offset="1" stop-color="#FF8A00"/>
</linearGradient>
<linearGradient id="paint19_linear" x1="318.858" y1="54.7737" x2="300.564" y2="86.4077" gradientUnits="userSpaceOnUse">
<stop stop-color="#FFC000"/>
<stop offset="1" stop-color="#FF8A00"/>
</linearGradient>
<linearGradient id="paint20_linear" x1="320.411" y1="78.8662" x2="319.589" y2="80.1694" gradientUnits="userSpaceOnUse">
<stop stop-color="#FFC000"/>
<stop offset="1" stop-color="#FF8A00"/>
</linearGradient>
<linearGradient id="paint21_linear" x1="312.899" y1="67.519" x2="307.967" y2="78.1905" gradientUnits="userSpaceOnUse">
<stop stop-color="#FFC000"/>
<stop offset="1" stop-color="#FF8A00"/>
</linearGradient>
<linearGradient id="paint22_linear" x1="302.56" y1="73.5262" x2="301.738" y2="74.8294" gradientUnits="userSpaceOnUse">
<stop stop-color="#FFC000"/>
<stop offset="1" stop-color="#FF8A00"/>
</linearGradient>
<linearGradient id="paint23_linear" x1="307.996" y1="68.743" x2="307.174" y2="70.0463" gradientUnits="userSpaceOnUse">
<stop stop-color="#FFC000"/>
<stop offset="1" stop-color="#FF8A00"/>
</linearGradient>
<linearGradient id="paint24_linear" x1="313.433" y1="63.9593" x2="312.61" y2="65.2636" gradientUnits="userSpaceOnUse">
<stop stop-color="#FFC000"/>
<stop offset="1" stop-color="#FF8A00"/>
</linearGradient>
<linearGradient id="paint25_linear" x1="316.912" y1="67.9133" x2="316.09" y2="69.2176" gradientUnits="userSpaceOnUse">
<stop stop-color="#FFC000"/>
<stop offset="1" stop-color="#FF8A00"/>
</linearGradient>
<linearGradient id="paint26_linear" x1="320.393" y1="71.8673" x2="319.57" y2="73.1716" gradientUnits="userSpaceOnUse">
<stop stop-color="#FFC000"/>
<stop offset="1" stop-color="#FF8A00"/>
</linearGradient>
<linearGradient id="paint27_linear" x1="309.519" y1="81.4348" x2="308.697" y2="82.738" gradientUnits="userSpaceOnUse">
<stop stop-color="#FFC000"/>
<stop offset="1" stop-color="#FF8A00"/>
</linearGradient>
<linearGradient id="paint28_linear" x1="306.039" y1="77.4807" x2="305.218" y2="78.784" gradientUnits="userSpaceOnUse">
<stop stop-color="#FFC000"/>
<stop offset="1" stop-color="#FF8A00"/>
</linearGradient>
<linearGradient id="paint29_linear" x1="314.955" y1="76.6516" x2="314.134" y2="77.9548" gradientUnits="userSpaceOnUse">
<stop stop-color="#FFC000"/>
<stop offset="1" stop-color="#FF8A00"/>
</linearGradient>
<linearGradient id="paint30_linear" x1="460.597" y1="79.7497" x2="425.794" y2="90.0077" gradientUnits="userSpaceOnUse">
<stop stop-color="#FFC000"/>
<stop offset="1" stop-color="#FF8A00"/>
</linearGradient>
<linearGradient id="paint31_linear" x1="460.259" y1="250.04" x2="399.918" y2="273.616" gradientUnits="userSpaceOnUse">
<stop stop-color="#FFC000"/>
<stop offset="1" stop-color="#FF8A00"/>
</linearGradient>
<linearGradient id="paint32_linear" x1="423.497" y1="32.7794" x2="442.501" y2="49.7222" gradientUnits="userSpaceOnUse">
<stop stop-color="#FFC000"/>
<stop offset="1" stop-color="#FF8A00"/>
</linearGradient>
<clipPath id="clip0">
<rect x="414" y="131" width="26" height="26" fill="white"/>
</clipPath>
<clipPath id="clip1">
<rect x="365.848" y="144.179" width="42.7584" height="42.7584" transform="rotate(-119.18 365.848 144.179)" fill="white"/>
</clipPath>
</defs>
</svg>
